<svg width="56" height="11" viewBox="0 0 56 11" fill="none" xmlns="http://www.w3.org/2000/svg">
<path d="M4.886 10.168C4.12067 10.168 3.416 9.99067 2.772 9.636C2.128 9.28133 1.61 8.75867 1.218 8.068C0.835333 7.368 0.644 6.50933 0.644 5.492C0.644 4.484 0.84 3.62533 1.232 2.916C1.63333 2.19733 2.16067 1.65133 2.814 1.278C3.47667 0.895333 4.19067 0.704 4.956 0.704C5.544 0.704 6.07133 0.825333 6.538 1.068C7.00467 1.30133 7.392 1.57667 7.7 1.894L6.608 3.21C6.37467 2.99533 6.12733 2.82267 5.866 2.692C5.614 2.552 5.32467 2.482 4.998 2.482C4.58733 2.482 4.20933 2.59867 3.864 2.832C3.528 3.06533 3.25733 3.40133 3.052 3.84C2.856 4.27867 2.758 4.806 2.758 5.422C2.758 6.35533 2.95867 7.08333 3.36 7.606C3.76133 8.12867 4.298 8.39 4.97 8.39C5.34333 8.39 5.67467 8.306 5.964 8.138C6.26267 7.97 6.524 7.76933 6.748 7.536L7.84 8.824C7.07467 9.72 6.09 10.168 4.886 10.168ZM12.0404 10.168C11.4524 10.168 10.8971 10.028 10.3744 9.748C9.8611 9.45867 9.44577 9.04333 9.12844 8.502C8.8111 7.95133 8.65244 7.29333 8.65244 6.528C8.65244 5.75333 8.8111 5.09533 9.12844 4.554C9.44577 4.01267 9.8611 3.602 10.3744 3.322C10.8971 3.03267 11.4524 2.888 12.0404 2.888C12.6284 2.888 13.1791 3.03267 13.6924 3.322C14.2058 3.602 14.6211 4.01267 14.9384 4.554C15.2558 5.09533 15.4144 5.75333 15.4144 6.528C15.4144 7.29333 15.2558 7.95133 14.9384 8.502C14.6211 9.04333 14.2058 9.45867 13.6924 9.748C13.1791 10.028 12.6284 10.168 12.0404 10.168ZM12.0404 8.502C12.4604 8.502 12.7778 8.32467 12.9924 7.97C13.2071 7.606 13.3144 7.12533 13.3144 6.528C13.3144 5.92133 13.2071 5.44067 12.9924 5.086C12.7778 4.73133 12.4604 4.554 12.0404 4.554C11.6111 4.554 11.2891 4.73133 11.0744 5.086C10.8691 5.44067 10.7664 5.92133 10.7664 6.528C10.7664 7.12533 10.8691 7.606 11.0744 7.97C11.2891 8.32467 11.6111 8.502 12.0404 8.502ZM16.8241 10V3.056H18.5041L18.6441 3.938H18.7001C18.9987 3.658 19.3254 3.41533 19.6801 3.21C20.0441 2.99533 20.4594 2.888 20.9261 2.888C21.6821 2.888 22.2281 3.14 22.5641 3.644C22.9094 4.13867 23.0821 4.82 23.0821 5.688V10H21.0241V5.954C21.0241 5.45 20.9541 5.10467 20.8141 4.918C20.6834 4.73133 20.4687 4.638 20.1701 4.638C19.9087 4.638 19.6847 4.69867 19.4981 4.82C19.3114 4.932 19.1061 5.09533 18.8821 5.31V10H16.8241ZM27.5098 10.168C26.6511 10.168 26.0351 9.92067 25.6618 9.426C25.2978 8.93133 25.1158 8.28267 25.1158 7.48V4.666H24.1638V3.14L25.2278 3.056L25.4658 1.208H27.1738V3.056H28.8398V4.666H27.1738V7.452C27.1738 7.844 27.2531 8.12867 27.4118 8.306C27.5798 8.474 27.7991 8.558 28.0698 8.558C28.1818 8.558 28.2938 8.544 28.4058 8.516C28.5271 8.488 28.6344 8.45533 28.7278 8.418L29.0498 9.916C28.8724 9.972 28.6531 10.028 28.3918 10.084C28.1398 10.14 27.8458 10.168 27.5098 10.168ZM31.6717 10.168C31.0371 10.168 30.5331 9.96733 30.1597 9.566C29.7864 9.15533 29.5997 8.656 29.5997 8.068C29.5997 7.34 29.9077 6.77067 30.5237 6.36C31.1397 5.94933 32.1337 5.674 33.5057 5.534C33.4871 5.226 33.3937 4.98333 33.2257 4.806C33.0671 4.61933 32.7964 4.526 32.4137 4.526C32.1244 4.526 31.8304 4.582 31.5317 4.694C31.2331 4.806 30.9157 4.96 30.5797 5.156L29.8377 3.798C30.2764 3.52733 30.7431 3.308 31.2377 3.14C31.7417 2.972 32.2644 2.888 32.8057 2.888C33.6924 2.888 34.3737 3.14467 34.8497 3.658C35.3257 4.17133 35.5637 4.96 35.5637 6.024V10H33.8837L33.7437 9.286H33.6877C33.3984 9.54733 33.0857 9.762 32.7497 9.93C32.4231 10.0887 32.0637 10.168 31.6717 10.168ZM32.3717 8.572C32.6051 8.572 32.8057 8.52067 32.9737 8.418C33.1511 8.306 33.3284 8.16133 33.5057 7.984V6.766C32.7777 6.85933 32.2737 7.00867 31.9937 7.214C31.7137 7.41 31.5737 7.64333 31.5737 7.914C31.5737 8.138 31.6437 8.306 31.7837 8.418C31.9331 8.52067 32.1291 8.572 32.3717 8.572ZM40.9445 10.168C40.6365 10.168 40.3239 10.0933 40.0065 9.944C39.6985 9.78533 39.4092 9.55667 39.1385 9.258H39.0825L38.9145 10H37.3045V0.186H39.3625V2.594L39.3065 3.658C39.5772 3.41533 39.8712 3.22867 40.1885 3.098C40.5059 2.958 40.8232 2.888 41.1405 2.888C41.7005 2.888 42.1859 3.03267 42.5965 3.322C43.0072 3.61133 43.3199 4.022 43.5345 4.554C43.7585 5.07667 43.8705 5.69267 43.8705 6.402C43.8705 7.19533 43.7305 7.87667 43.4505 8.446C43.1705 9.006 42.8065 9.43533 42.3585 9.734C41.9199 10.0233 41.4485 10.168 40.9445 10.168ZM40.4685 8.488C40.8232 8.488 41.1265 8.32467 41.3785 7.998C41.6305 7.67133 41.7565 7.15333 41.7565 6.444C41.7565 5.19333 41.3552 4.568 40.5525 4.568C40.1419 4.568 39.7452 4.778 39.3625 5.198V8.04C39.5492 8.208 39.7359 8.32467 39.9225 8.39C40.1092 8.45533 40.2912 8.488 40.4685 8.488ZM47.2199 10.168C46.5106 10.168 46.0159 9.958 45.7359 9.538C45.4653 9.10867 45.3299 8.544 45.3299 7.844V0.186H47.3879V7.928C47.3879 8.14267 47.4253 8.292 47.4999 8.376C47.5839 8.46 47.6679 8.502 47.7519 8.502C47.7986 8.502 47.8359 8.502 47.8639 8.502C47.9013 8.49267 47.9479 8.48333 48.0039 8.474L48.2559 10C48.1439 10.0467 47.9993 10.084 47.8219 10.112C47.6539 10.1493 47.4533 10.168 47.2199 10.168ZM52.4438 10.168C51.7811 10.168 51.1838 10.0233 50.6518 9.734C50.1198 9.44467 49.6998 9.02933 49.3918 8.488C49.0838 7.94667 48.9298 7.29333 48.9298 6.528C48.9298 5.772 49.0838 5.12333 49.3918 4.582C49.7091 4.04067 50.1198 3.62533 50.6238 3.336C51.1278 3.03733 51.6551 2.888 52.2058 2.888C52.8684 2.888 53.4144 3.03733 53.8438 3.336C54.2824 3.62533 54.6091 4.022 54.8238 4.526C55.0478 5.02067 55.1598 5.58533 55.1598 6.22C55.1598 6.39733 55.1504 6.57467 55.1318 6.752C55.1131 6.92 55.0944 7.046 55.0758 7.13H50.9178C51.0111 7.634 51.2211 8.00733 51.5478 8.25C51.8744 8.48333 52.2664 8.6 52.7238 8.6C53.2184 8.6 53.7178 8.446 54.2218 8.138L54.9078 9.384C54.5531 9.62667 54.1564 9.818 53.7178 9.958C53.2791 10.098 52.8544 10.168 52.4438 10.168ZM50.9038 5.772H53.4098C53.4098 5.38933 53.3164 5.07667 53.1298 4.834C52.9524 4.582 52.6584 4.456 52.2478 4.456C51.9304 4.456 51.6458 4.568 51.3938 4.792C51.1418 5.00667 50.9784 5.33333 50.9038 5.772Z" fill="white"/>
</svg>
